<svg xmlns="http://www.w3.org/2000/svg" width="512" height="512"><mask id="a"><circle fill="#fff" cx="256" cy="256" r="230"/></mask><circle cx="256" cy="256" r="256"/><path mask="url(#a)" stroke="#fff" stroke-width="25" stroke-linecap="round" d="m71 319 17-63m19.964-94.905 17-63M36.93 221l17-63m72.034 227 17-63m17.408 164.829 17-63m52.628 32.5 17-63M206.257 92.587l17-63m103.138 143.417 17-63m108.787 194.689 17-63M409.124 221l17-63M299.027 54.558l17-63m84.597 94.5 17-63"/><path mask="url(#a)" fill="#fff" stroke="#000" stroke-width="12" d="M252.225 344.418c-86.65 2.61-144.576-34.5-144.576-94.363 0-61.494 60.33-111.145 138.351-111.145 37.683 0 69.532 10.65 94.392 30.092 21.882 17.113 37.521 40.526 45.519 66.312 2.574 8.301 22.863 83.767 61.112 227.295l1.295 4.86-159.793 74.443-1.101-8.063c-8.85-64.778-16.546-113.338-23.076-145.634-3.237-16.004-6.178-27.96-8.79-35.794-1.227-3.682-2.355-6.361-3.303-7.952a12.56 12.56 0 0 0-.03-.05z"/><circle mask="url(#a)" cx="262" cy="203" r="16"/></svg>